<?xml version="1.0" standalone="no"?>

<!DOCTYPE svg PUBLIC "-//W3C//DTD SVG 20010904//EN" "http://www.w3.org/TR/2001/REC-SVG-20010904/DTD/svg10.dtd">

<svg version="1.0" width="512.000000pt" height="512.000000pt" viewBox="0 0 512.000000 512.000000" preserveAspectRatio="xMidYMid meet" 
    xmlns="http://www.w3.org/2000/svg">

    <g transform="translate(0.000000,512.000000) scale(0.100000,-0.100000)" fill="rgb(64, 64, 255)" stroke="none">
        <path d="
        M2335 4699
        c-584 -47 -1154 -306 -1550 -703 -320 -321 -517 -715 -565 -1128 -19 -159 -8 -411 24 -564 81 -386 286 -744 591 -1032 88 -83 225 -194 272 -221 17 -9 17 -14 0 -98 -40 -190 -127 -377 -284 -607
        l-95 -139 203 6
        c174 4 219 9 305 30 255 65 492 194 685 374
        l65 61 69 -14
        c210 -44 568 -57 806 -29 736 86 1384 469 1753 1037 122 188 223 436 266 654 28 138 37 389 21 534 -48 419 -243 812 -566 1136 -502 504 -1242 764 -2000 703
        z
        m-330 -1938
        c76 -34 135 -123 135 -201 0 -112 -106 -219 -218 -220 -154 -1 -271 177 -203 308 57 111 182 161 286 113
        z
        m640 0
        c22 -10 57 -36 77 -59 76 -85 76 -199 0 -284 -93 -103 -231 -103 -324 0 -76 85 -76 199 0 284 45 50 102 78 162 78 25 0 63 -9 85 -19
        z
        m633 3
        c115 -48 175 -191 123 -292 -77 -149 -254 -175 -363 -54 -76 85 -76 199 0 284 65 73 158 97 240 62z"/>
    </g>
</svg>