<?xml version="1.1" ?>

<!DOCTYPE svg PUBLIC "-//W3C//DTD SVG 20010904//EN" "http://www.w3.org/TR/2001/REC-SVG-20010904/DTD/svg10.dtd">

<svg width="50px" height="50px" version="1.1" viewBox="0 0 512.000000 512.000000" preserveAspectRatio="xMidYMid meet" 
	xmlns="http://www.w3.org/2000/svg">
	<g transform="translate(0.000000,512.000000) scale(0.100000,-0.100000)" fill="rgb(64, 64, 64)" stroke="none">
		<path d="M2335 4699 c-584 -47 -1154 -306 -1550 -703 -320 -321 -517 -715 -565 -1128 -19 -159 -8 -411 24 -564 81 -386 286 -744 591 -1032 88 -83 225 -194 272 -221 17 -9 17 -14 0 -98 -40 -190 -127 -377 -284 -607 l-95 -139 203 6 c174 4 219 9 305 30 255 65 492 194 685 374 l65 61 69 -14 c210 -44 568 -57 806 -29 736 86 1384 469 1753 1037 122 188 223 436 266 654 28 138 37 389 21 534 -48 419 -243 812 -566 1136 -502 504 -1242 764 -2000 703z m420 -199 c716 -61 1317 -389 1666 -909 209 -310 301 -633 286 -999 -14 -316 -104 -586 -291 -867 -98 -147 -319 -374 -463 -475 -304 -213 -637 -345 -1025 -407 -88 -14 -171 -18 -373 -17 -270 0 -335 6 -551 55 l-91 20 -109 -108 c-166 -165 -354 -278 -558 -337 -135 -40 -134 -41 -85 56 92 182 153 385 165 548 l7 86 -102 68 c-427 287 -712 702 -797 1161 -28 151 -26 461 5 605 107 505 432 936 912 1213 412 237 919 348 1404 307z" />

		<path d="M1840 2764 c-45 -19 -97 -69 -121 -116 -68 -131 49 -309 203 -308 112 1 218 108 218 220 0 78 -59 167 -135 201 -48 22 -118 24 -165 3z" />

		<path d="M2475 2761 c-22 -10 -57 -36 -77 -59 -76 -85 -76 -199 0 -284 93 -103 231 -103 324 0 76 85 76 199 0 284 -45 50 -102 78 -162 78 -25 0 -63 -9 -85 -19z" />

		<path d="M3115 2761 c-76 -34 -135 -123 -135 -201 0 -112 106 -219 218 -220 115 0 222 104 222 217 -1 156 -167 267 -305 204z" />
	</g>
</svg>