<?xml version="1.0" standalone="no"?>
<!DOCTYPE svg PUBLIC "-//W3C//DTD SVG 20010904//EN"
 "http://www.w3.org/TR/2001/REC-SVG-20010904/DTD/svg10.dtd">
<svg version="1.0" xmlns="http://www.w3.org/2000/svg"
 width="1000.000000pt" height="1000.000000pt" viewBox="0 0 1000.000000 1000.000000"
 preserveAspectRatio="xMidYMid meet">
<metadata>
Created by potrace 1.15, written by Peter Selinger 2001-2017
</metadata>
<g transform="translate(0.000000,1000.000000) scale(0.100000,-0.100000)"
fill="#000000" stroke="none">
<path d="M6627 9181 c-21 -10 -43 -23 -50 -30 -6 -6 -30 -11 -52 -11 -41 0
-85 -30 -85 -58 0 -6 -11 -19 -25 -28 -14 -9 -25 -21 -25 -28 0 -6 -19 -31
-41 -56 -23 -25 -42 -50 -43 -56 -1 -5 -7 -17 -14 -25 -43 -52 -62 -78 -62
-88 0 -5 -9 -15 -20 -21 -11 -6 -18 -15 -15 -20 3 -5 -3 -15 -15 -22 -11 -7
-20 -21 -20 -30 0 -10 -9 -22 -20 -28 -11 -6 -20 -17 -20 -25 0 -8 -11 -22
-25 -31 -14 -9 -25 -21 -25 -28 -1 -6 -14 -27 -30 -46 -17 -19 -30 -42 -30
-51 0 -10 -8 -20 -18 -23 -9 -3 -24 -20 -31 -38 -15 -34 -23 -45 -54 -79 -10
-11 -15 -24 -12 -29 4 -6 -1 -13 -9 -16 -9 -3 -25 -26 -38 -50 -12 -24 -25
-44 -30 -44 -4 0 -8 -6 -8 -13 0 -7 -13 -27 -29 -44 -16 -17 -34 -46 -40 -64
-6 -17 -22 -42 -36 -55 -15 -13 -23 -29 -20 -34 3 -6 -1 -13 -9 -16 -9 -3 -25
-26 -38 -50 -12 -24 -25 -44 -29 -44 -4 0 -10 -14 -14 -31 -4 -18 -15 -33 -25
-36 -11 -3 -23 -22 -31 -50 -6 -25 -18 -47 -25 -50 -8 -3 -11 -9 -8 -14 3 -5
1 -9 -4 -9 -9 0 -25 -37 -23 -52 1 -5 -3 -8 -9 -8 -5 0 -10 -7 -10 -15 0 -7
-6 -18 -14 -22 -7 -4 -19 -26 -26 -48 -7 -22 -23 -50 -35 -63 -13 -12 -26 -35
-30 -50 -4 -15 -15 -35 -26 -45 -10 -10 -19 -27 -19 -38 0 -11 -11 -31 -24
-44 -13 -13 -21 -26 -18 -29 3 -3 1 -6 -5 -6 -10 0 -26 -36 -24 -52 1 -5 -3
-8 -8 -8 -5 0 -15 -20 -22 -45 -7 -25 -17 -45 -22 -45 -4 0 -6 -4 -3 -9 3 -5
-1 -12 -10 -15 -8 -3 -12 -10 -9 -16 3 -5 2 -10 -4 -10 -5 0 -12 -13 -16 -30
-4 -16 -11 -30 -16 -30 -6 0 -7 -4 -4 -10 3 -5 2 -10 -3 -10 -5 0 -14 -19 -21
-41 -7 -23 -21 -51 -31 -62 -11 -11 -17 -24 -14 -29 3 -4 1 -8 -5 -8 -5 0 -12
-13 -16 -30 -4 -16 -11 -30 -16 -30 -4 0 -16 -26 -25 -57 -9 -32 -23 -62 -30
-66 -8 -5 -12 -12 -9 -18 4 -5 2 -9 -3 -9 -5 0 -14 -18 -21 -40 -6 -22 -16
-40 -20 -40 -5 0 -14 -21 -22 -47 -7 -27 -20 -53 -28 -60 -13 -10 -14 -12 -2
-13 12 0 12 -2 -1 -12 -8 -7 -24 -41 -34 -75 -10 -35 -21 -63 -25 -63 -4 0
-13 -22 -20 -50 -7 -28 -19 -50 -26 -50 -17 0 -17 -27 0 -33 7 -3 5 -6 -5 -6
-16 -1 -38 -53 -38 -88 0 -7 -5 -13 -11 -13 -5 0 -7 -4 -4 -10 3 -5 1 -10 -4
-10 -6 0 -11 -10 -11 -23 0 -12 -7 -33 -16 -45 -8 -12 -13 -26 -10 -31 3 -5 0
-11 -8 -14 -7 -3 -21 -37 -31 -76 -11 -39 -22 -71 -26 -71 -3 0 -12 -27 -19
-60 -7 -33 -17 -60 -23 -60 -5 0 -7 -9 -4 -20 3 -12 0 -20 -7 -20 -7 0 -20
-35 -31 -85 -10 -47 -21 -85 -25 -85 -4 0 -13 -27 -19 -59 -7 -36 -18 -61 -27
-65 -9 -3 -14 -13 -10 -21 3 -8 0 -17 -5 -21 -6 -3 -9 -15 -6 -25 3 -11 2 -19
-3 -19 -4 0 -13 -27 -19 -60 -7 -33 -16 -60 -20 -60 -5 0 -12 -25 -16 -55 -3
-30 -11 -55 -16 -55 -5 0 -9 -11 -9 -25 0 -14 -5 -25 -11 -25 -7 0 -9 -10 -7
-25 3 -14 2 -25 -2 -25 -3 0 -12 -36 -19 -80 -8 -44 -18 -80 -23 -80 -6 0 -8
-11 -6 -25 3 -14 2 -25 -2 -25 -4 0 -10 -22 -14 -50 -4 -27 -11 -50 -16 -50
-6 0 -10 -13 -10 -30 0 -16 -5 -30 -11 -30 -7 0 -9 -10 -7 -25 3 -14 2 -25 -3
-25 -4 0 -13 -40 -20 -90 -7 -49 -16 -90 -20 -90 -3 0 -9 -30 -13 -67 -4 -37
-12 -73 -18 -80 -6 -7 -8 -24 -6 -38 3 -14 1 -25 -3 -25 -5 0 -9 -15 -9 -33 0
-18 -4 -37 -9 -42 -5 -6 -19 -77 -31 -158 -22 -143 -23 -204 -4 -307 6 -32 6
-33 -10 -18 -9 9 -25 19 -35 23 -11 3 -22 12 -25 20 -3 8 -12 15 -20 15 -9 0
-20 9 -26 20 -6 11 -17 20 -26 20 -8 0 -17 6 -20 14 -3 8 -20 20 -37 27 -18 7
-38 19 -45 26 -7 7 -25 16 -40 20 -15 3 -30 11 -34 17 -4 6 -46 13 -95 15
l-88 3 -66 67 c-36 36 -78 72 -92 78 -15 7 -27 17 -27 23 0 5 -5 10 -12 10 -6
0 -26 11 -44 25 -18 14 -38 25 -44 25 -6 0 -13 7 -16 15 -4 8 -12 15 -19 15
-6 0 -22 9 -35 20 -13 11 -29 20 -36 20 -7 0 -19 6 -26 13 -7 8 -30 20 -51 26
-20 7 -37 16 -37 20 0 4 -18 13 -40 20 -22 6 -40 16 -40 21 0 6 -6 10 -13 10
-7 0 -29 8 -50 19 -20 10 -57 25 -82 32 -25 7 -45 17 -45 20 0 4 -14 10 -30
14 -17 4 -30 10 -30 15 0 4 -16 11 -35 14 -19 4 -40 12 -47 19 -7 7 -34 19
-60 26 -27 8 -48 17 -48 20 0 4 -20 13 -45 20 -25 7 -45 16 -45 20 0 4 -22 13
-50 20 -27 7 -50 16 -50 20 0 4 -20 13 -45 20 -25 7 -45 17 -45 21 0 4 -12 11
-26 14 -47 12 -57 31 -51 93 3 31 10 59 16 62 5 3 13 20 17 36 4 17 18 43 31
58 12 16 23 32 23 36 0 4 12 14 27 22 16 8 34 22 41 32 7 9 20 17 28 17 8 0
14 4 14 8 0 5 22 14 50 21 27 7 50 16 50 20 0 4 20 13 45 20 25 7 45 17 45 21
0 4 14 10 32 14 30 6 118 45 128 57 3 3 22 12 43 18 20 7 37 17 37 22 0 5 5 9
12 9 19 0 138 61 138 71 0 5 6 9 13 9 7 0 22 8 33 19 11 10 31 24 44 31 13 7
29 17 34 21 6 5 25 20 42 34 18 14 35 25 38 25 4 0 20 13 36 30 16 17 33 30
37 30 4 0 30 23 56 50 27 28 52 50 56 50 10 0 281 269 281 279 0 5 29 38 65
73 36 36 65 68 65 72 0 4 25 33 55 64 30 31 88 92 130 136 41 43 75 82 75 86
0 11 161 170 172 170 5 0 8 5 6 12 -5 15 245 267 284 287 15 8 25 17 23 21 -3
5 2 10 10 14 11 4 15 21 15 66 0 33 4 60 10 60 6 0 10 12 10 26 0 34 21 114
30 114 4 0 13 18 20 40 7 22 17 40 22 40 4 0 8 7 8 15 0 9 7 18 16 22 8 3 13
12 10 19 -3 8 -1 14 5 14 5 0 14 11 19 25 5 14 14 25 20 25 5 0 10 7 10 15 0
7 6 18 13 22 7 4 21 25 31 46 9 20 21 37 26 37 4 0 11 14 15 30 4 17 10 30 15
30 5 0 14 17 21 38 6 20 17 40 23 44 8 5 11 110 11 348 0 309 -2 342 -17 351
-9 5 -19 23 -23 39 -4 17 -10 30 -13 30 -4 0 -14 15 -22 33 -15 35 -25 49 -52
75 -10 9 -18 22 -18 29 0 7 -9 17 -20 23 -11 6 -20 17 -20 24 0 7 -11 23 -25
36 -14 13 -25 27 -25 32 0 9 -118 128 -127 128 -5 0 -43 33 -124 106 -9 8 -21
14 -28 14 -6 0 -14 7 -17 15 -4 8 -12 15 -20 15 -7 0 -19 8 -26 18 -7 10 -28
24 -45 31 -18 7 -33 17 -33 21 0 4 -18 12 -40 19 -22 6 -40 16 -40 21 0 6 -6
10 -12 10 -14 0 -120 51 -128 61 -3 3 -29 12 -57 19 -29 6 -53 15 -53 20 0 4
-28 13 -62 20 -35 7 -65 17 -68 20 -3 4 -69 15 -147 25 -108 13 -183 16 -310
12 -195 -6 -416 -25 -423 -37 -3 -4 -20 -11 -38 -15 -18 -3 -37 -15 -42 -26
-6 -10 -16 -19 -22 -19 -6 0 -18 -7 -27 -15 -35 -33 -79 -65 -90 -65 -6 0 -11
-4 -11 -10 0 -5 -16 -10 -36 -10 -28 0 -44 7 -66 30 -33 35 -53 37 -88 10 -14
-11 -31 -20 -37 -20 -7 0 -13 -4 -13 -8 0 -5 -18 -14 -40 -21 -22 -6 -40 -16
-40 -21 0 -5 -16 -14 -35 -21 -19 -7 -35 -16 -35 -19 0 -4 -18 -13 -39 -20
-22 -7 -42 -19 -45 -25 -2 -7 -18 -16 -35 -20 -17 -4 -31 -10 -31 -14 0 -3
-12 -12 -27 -18 -31 -13 -85 -44 -93 -54 -3 -3 -22 -12 -42 -20 -21 -7 -38
-16 -38 -20 0 -4 -16 -13 -35 -20 -19 -7 -35 -16 -35 -20 0 -4 -10 -9 -23 -13
-13 -3 -43 -24 -68 -46 -24 -22 -59 -54 -77 -70 -18 -17 -37 -30 -42 -30 -5 0
-12 -9 -15 -20 -3 -11 -15 -25 -26 -30 -10 -6 -19 -16 -19 -23 0 -7 -12 -24
-28 -38 -31 -29 -52 -62 -52 -84 0 -8 -4 -15 -9 -15 -5 0 -12 -14 -16 -30 -4
-17 -13 -37 -21 -45 -28 -27 -38 -192 -24 -365 7 -85 16 -157 20 -160 4 -3 13
-77 20 -165 7 -88 16 -162 21 -165 4 -3 13 -170 20 -370 9 -284 9 -446 -1
-730 -7 -201 -16 -367 -20 -370 -4 -3 -10 -61 -13 -129 -3 -68 -8 -126 -11
-128 -3 -3 -19 5 -36 17 -38 27 -66 25 -365 -25 -217 -37 -320 -42 -311 -15 3
8 14 44 26 80 19 60 36 96 112 240 25 47 27 55 13 58 -9 2 -24 -3 -34 -12 -10
-9 -22 -16 -27 -16 -28 0 -224 -332 -224 -380 0 -23 -26 -2 -57 46 -87 136
-199 294 -209 294 -7 0 -22 -8 -35 -19 l-23 -18 56 -99 c31 -54 73 -126 92
-159 27 -43 33 -61 24 -66 -7 -4 -51 -12 -98 -18 -47 -6 -98 -12 -115 -15 -57
-7 -186 -44 -211 -60 -19 -13 -24 -25 -24 -57 0 -33 7 -47 44 -87 55 -59 151
-219 173 -289 14 -45 15 -63 5 -130 -19 -123 -16 -167 13 -200 l24 -28 38 21
c50 28 118 131 229 346 48 92 90 168 94 168 10 0 45 -68 85 -165 48 -116 68
-143 123 -167 44 -20 46 -20 59 -2 7 9 16 32 19 51 5 27 0 42 -31 88 -20 31
-57 100 -82 153 -24 53 -62 134 -85 180 -38 79 -39 84 -24 107 13 20 24 25 59
24 23 0 50 -4 60 -8 11 -4 49 1 87 10 102 26 326 51 395 44 54 -5 70 -3 160
25 5 1 -10 -207 -15 -210 -4 -3 -13 -113 -20 -245 -7 -132 -18 -243 -23 -246
-6 -4 -10 -92 -11 -218 -1 -178 1 -213 14 -221 13 -8 15 -47 15 -250 -1 -165
-4 -243 -12 -248 -6 -4 -14 -59 -18 -129 -4 -68 -12 -123 -17 -123 -6 0 -8
-22 -6 -50 1 -28 0 -50 -3 -50 -3 0 -9 -51 -13 -112 -4 -62 -12 -116 -18 -119
-6 -4 -9 -29 -7 -58 2 -28 1 -51 -2 -51 -3 0 -9 -35 -13 -77 -3 -42 -10 -79
-15 -82 -4 -3 -14 -43 -21 -89 -8 -45 -17 -82 -21 -82 -4 0 -12 -29 -19 -65
-7 -36 -16 -65 -20 -65 -5 0 -14 -31 -20 -70 -6 -38 -16 -70 -20 -70 -5 0 -12
-20 -16 -45 -3 -25 -10 -45 -14 -45 -4 0 -13 -41 -21 -90 -7 -50 -17 -90 -22
-90 -5 0 -7 -18 -5 -40 2 -22 -1 -40 -6 -40 -13 0 -1 -343 13 -348 15 -5 15
-192 0 -192 -7 0 -10 -20 -7 -55 1 -30 0 -55 -3 -55 -4 0 -12 -64 -19 -142
-14 -160 -9 -376 10 -454 l13 -52 58 -16 c80 -22 264 -22 335 1 l53 16 7 69
c4 37 10 68 14 68 12 0 30 191 30 310 0 67 4 110 10 110 6 0 10 103 10 290 0
187 -4 290 -10 290 -6 0 -10 58 -10 155 0 97 4 155 10 155 6 0 10 20 10 45 0
60 21 195 30 195 4 0 10 23 13 52 4 28 12 55 18 59 7 4 9 14 6 23 -4 9 -3 16
2 16 5 0 12 16 15 35 4 19 12 35 18 35 6 0 8 9 5 20 -3 10 -2 20 2 22 9 4 61
111 61 126 0 6 4 12 9 12 18 0 23 41 7 53 -28 21 -40 95 -27 160 7 31 16 57
20 57 4 0 14 22 21 50 7 27 17 50 22 50 14 0 9 108 -4 113 -17 5 -15 340 1
345 6 2 11 18 11 35 0 53 23 197 31 197 4 0 11 20 15 45 3 25 10 45 14 45 4 0
10 14 14 30 5 27 8 30 33 24 16 -3 40 -12 56 -19 15 -8 52 -19 82 -26 30 -7
55 -16 55 -20 0 -4 18 -10 40 -14 22 -4 40 -10 40 -15 0 -4 27 -13 60 -20 33
-7 60 -16 60 -20 0 -4 25 -12 55 -19 30 -7 55 -16 55 -20 0 -4 25 -14 55 -21
30 -7 55 -17 55 -21 0 -5 20 -14 45 -20 25 -6 45 -15 45 -19 0 -5 15 -11 33
-15 17 -4 41 -13 52 -19 11 -7 32 -16 48 -20 15 -3 27 -11 27 -16 0 -6 8 -10
17 -10 22 0 83 -22 83 -30 0 -4 18 -13 40 -20 22 -7 40 -16 40 -20 0 -4 18
-13 40 -20 22 -7 40 -16 40 -20 0 -4 18 -12 40 -19 22 -6 40 -15 40 -20 0 -4
18 -13 40 -20 22 -6 40 -16 40 -21 0 -4 13 -11 30 -15 16 -4 30 -10 30 -15 0
-4 14 -13 30 -20 17 -7 30 -15 30 -19 0 -4 16 -13 35 -20 19 -7 35 -16 35 -21
0 -5 16 -14 35 -21 19 -7 35 -17 35 -21 0 -5 11 -13 25 -18 14 -5 25 -14 25
-19 0 -5 13 -12 30 -16 16 -4 33 -12 37 -18 5 -7 22 -19 38 -27 17 -8 34 -21
38 -27 4 -7 12 -13 17 -13 6 0 18 -7 27 -16 39 -34 78 -64 86 -64 4 0 21 -14
37 -30 16 -17 34 -30 40 -30 5 0 15 -9 22 -20 7 -11 18 -20 24 -20 7 0 22 -11
35 -25 13 -13 27 -25 32 -25 7 0 20 -10 80 -65 21 -19 42 -35 45 -35 7 0 46
-30 83 -63 8 -7 23 -16 32 -20 25 -9 53 -83 67 -175 8 -56 17 -82 26 -82 8 0
11 -6 8 -15 -4 -8 -2 -21 4 -28 6 -7 14 -36 18 -65 3 -28 10 -52 14 -52 4 0
13 -32 20 -71 8 -40 19 -76 25 -82 6 -6 9 -21 7 -34 -3 -16 0 -23 12 -23 9 0
16 -7 16 -15 0 -8 13 -43 29 -77 15 -35 32 -78 35 -96 4 -17 14 -32 21 -32 8
0 12 -6 9 -14 -3 -7 1 -16 9 -19 9 -3 18 -19 22 -36 4 -17 10 -31 13 -31 4 0
16 -19 27 -43 11 -23 29 -52 40 -64 11 -12 28 -30 37 -41 10 -10 18 -24 18
-30 0 -6 10 -19 23 -29 13 -10 32 -31 43 -48 23 -35 163 -175 175 -175 9 0 19
-8 76 -59 18 -16 48 -35 67 -42 20 -7 36 -16 36 -19 0 -4 16 -12 35 -20 19 -8
35 -17 35 -22 0 -4 9 -8 20 -8 11 0 20 -4 20 -10 0 -5 10 -10 23 -10 12 0 38
-13 57 -30 19 -16 40 -29 47 -30 6 0 18 -9 26 -21 8 -11 32 -30 53 -41 22 -11
41 -23 44 -27 3 -3 27 -21 53 -39 79 -53 173 -65 279 -36 54 16 60 16 76 0 24
-21 106 -21 167 -1 37 13 52 14 87 3 61 -17 306 -16 398 2 41 8 83 22 94 32
10 9 32 20 47 23 16 4 29 10 29 14 0 5 27 19 60 32 33 13 60 30 60 37 0 7 14
18 30 23 17 6 30 15 30 20 0 5 5 9 11 9 12 0 117 86 137 113 7 9 17 17 23 17
5 0 33 23 62 50 58 56 109 102 147 131 14 11 39 33 56 49 32 30 44 30 44 -1 0
-9 6 -19 14 -22 8 -3 20 -28 27 -56 8 -33 18 -51 28 -52 11 0 12 -2 4 -6 -17
-6 -16 -30 1 -40 12 -6 17 -54 26 -218 6 -115 14 -212 18 -215 4 -3 16 -40 26
-82 12 -53 22 -78 32 -78 8 0 17 -7 20 -15 9 -23 111 -19 186 6 35 12 65 26
66 30 2 5 10 9 18 9 8 0 14 5 14 10 0 6 3 9 8 8 4 0 15 2 25 5 9 4 24 9 32 12
23 7 23 783 0 791 -22 9 -22 206 1 225 12 10 15 28 12 76 -2 35 0 63 5 63 4 0
7 12 7 27 0 42 32 213 40 213 4 0 10 23 14 50 4 28 11 50 16 50 6 0 10 11 10
25 0 14 5 25 11 25 6 0 9 9 6 20 -3 11 -1 20 3 20 5 0 14 25 21 55 7 30 16 55
22 55 5 0 7 7 4 15 -4 8 -2 17 2 20 5 2 12 21 15 40 4 19 11 35 16 35 6 0 10
8 10 18 0 10 4 22 10 28 5 5 16 37 25 72 9 34 23 74 31 89 7 16 14 38 14 51 0
12 5 22 11 22 6 0 9 9 6 20 -3 11 -1 20 4 20 5 0 9 8 9 18 0 10 4 22 9 27 8 9
31 133 47 249 l7 48 -29 -6 c-16 -3 -46 -8 -66 -12 -21 -3 -38 -10 -38 -15 0
-5 -11 -9 -24 -9 -19 0 -27 8 -36 38 -6 20 -14 44 -16 52 -8 22 -10 280 -3
280 4 0 10 45 14 100 3 55 11 100 16 100 5 0 9 15 9 34 0 19 5 38 11 42 6 3 9
22 7 40 -2 19 -1 34 3 34 3 0 12 47 19 105 8 58 17 105 21 105 4 0 10 26 14
58 4 31 12 63 17 69 6 7 8 24 6 38 -3 14 -1 25 3 25 5 0 9 15 9 33 0 18 4 37
9 42 18 19 44 299 45 480 1 173 -17 355 -34 355 -5 0 -6 8 -3 19 3 10 0 22 -6
25 -6 4 -11 16 -11 27 0 10 -5 19 -11 19 -5 0 -7 5 -4 10 3 6 2 10 -4 10 -5 0
-12 14 -16 30 -4 17 -11 30 -16 30 -5 0 -9 6 -9 13 0 21 -30 77 -41 77 -5 0
-9 9 -9 20 0 11 -4 20 -9 20 -6 0 -18 14 -28 30 -18 32 -40 39 -49 16 -3 -8
-15 -11 -30 -8 -14 2 -35 0 -47 -6 -12 -6 -56 -15 -97 -22 -41 -6 -77 -14 -80
-18 -3 -4 -40 -16 -82 -26 -43 -10 -81 -23 -85 -30 -5 -7 -41 -21 -80 -31 -40
-9 -73 -21 -73 -26 0 -5 -20 -15 -45 -21 -25 -7 -54 -20 -64 -29 -10 -10 -37
-23 -60 -30 -22 -7 -41 -16 -41 -20 0 -5 -18 -14 -40 -20 -22 -7 -40 -16 -40
-21 0 -5 -5 -6 -10 -3 -6 3 -13 -1 -16 -9 -3 -8 -22 -20 -42 -27 -21 -7 -48
-20 -61 -30 -13 -11 -29 -19 -35 -19 -6 0 -22 -10 -36 -23 -26 -23 -90 -57
-109 -57 -6 0 -11 -4 -11 -8 0 -5 -16 -17 -37 -28 -20 -10 -47 -29 -61 -41
-14 -13 -29 -23 -35 -23 -5 0 -26 -13 -47 -30 -21 -16 -43 -30 -49 -30 -6 0
-11 -4 -11 -10 0 -5 -17 -17 -37 -27 -21 -9 -46 -28 -56 -40 -10 -13 -25 -23
-32 -23 -8 0 -18 -6 -22 -12 -4 -7 -24 -22 -43 -32 -19 -11 -41 -28 -48 -38
-7 -10 -17 -16 -22 -13 -5 3 -14 -5 -21 -17 -19 -36 -255 -268 -273 -268 -9 0
-16 -6 -16 -13 0 -12 -50 -62 -70 -69 -5 -2 -27 -19 -50 -38 -22 -19 -57 -50
-77 -67 -21 -18 -44 -33 -50 -33 -7 0 -13 -7 -13 -15 0 -9 -10 -20 -22 -26
-13 -6 -39 -30 -58 -55 -19 -24 -43 -47 -52 -50 -10 -3 -18 -11 -18 -18 0 -7
-11 -23 -25 -36 -14 -13 -25 -30 -25 -37 0 -8 -7 -16 -15 -19 -8 -4 -15 -12
-15 -20 0 -8 -4 -14 -9 -14 -5 0 -12 -12 -15 -26 -4 -14 -16 -46 -28 -70 -11
-24 -18 -51 -14 -59 3 -8 1 -15 -4 -15 -6 0 -10 -11 -10 -24 0 -14 -4 -28 -10
-31 -21 -13 -8 -47 36 -90 25 -25 51 -45 59 -45 7 0 15 -7 19 -15 9 -25 112
-20 134 6 9 11 32 27 50 36 17 8 32 20 32 26 0 11 80 87 92 87 4 0 9 8 12 18
3 9 26 33 51 52 24 19 44 41 45 48 0 17 438 451 481 478 8 5 26 24 41 42 15
18 30 32 34 31 3 -1 21 13 39 30 18 17 36 31 40 31 4 0 22 15 40 33 19 17 55
48 80 67 25 19 55 45 67 58 12 12 27 22 33 22 6 0 18 9 28 20 9 11 23 20 31
20 8 0 18 9 21 20 4 11 28 30 56 43 27 12 51 30 54 39 4 10 9 17 13 17 15 -2
52 14 52 22 0 4 17 16 38 25 20 10 41 24 45 31 4 7 13 13 20 13 7 0 24 11 39
25 15 14 30 25 34 25 9 0 78 33 84 40 3 4 28 17 55 30 28 13 52 27 55 30 3 4
29 15 58 24 28 10 52 22 52 27 0 5 11 9 25 9 14 0 25 4 25 9 0 5 15 13 33 16
17 4 34 11 37 14 3 4 21 12 41 18 l37 10 6 -45 c3 -24 6 -64 6 -88 0 -25 5
-44 12 -46 16 -6 17 -556 1 -566 -5 -4 -15 -81 -22 -172 -9 -122 -16 -167 -27
-173 -18 -10 -19 -83 -1 -90 7 -3 4 -6 -7 -6 -15 -1 -17 -8 -14 -46 2 -25 0
-45 -3 -45 -4 0 -10 -34 -14 -75 -4 -41 -11 -75 -17 -75 -6 0 -8 -17 -6 -40 2
-22 1 -40 -3 -40 -3 0 -12 -48 -18 -107 -9 -73 -17 -111 -27 -116 -17 -10 -19
-73 -1 -80 8 -4 6 -6 -4 -6 -13 -1 -18 -24 -29 -116 -7 -63 -17 -115 -22 -115
-6 0 -8 -22 -6 -50 1 -28 0 -50 -3 -50 -4 0 -10 -45 -14 -100 -4 -55 -12 -100
-17 -100 -6 0 -8 -23 -6 -55 2 -41 0 -55 -10 -55 -10 0 -13 -16 -11 -60 1 -33
-1 -63 -4 -67 -4 -3 -7 -49 -7 -102 0 -94 -13 -171 -29 -171 -4 0 -13 -18 -20
-40 -8 -26 -18 -40 -29 -40 -14 0 -14 -2 -3 -9 11 -7 9 -10 -8 -16 -12 -3 -21
-15 -21 -26 0 -10 -9 -24 -20 -31 -11 -7 -20 -18 -20 -24 0 -6 -16 -26 -35
-45 -19 -19 -35 -38 -35 -42 0 -5 -124 -133 -276 -284 l-275 -276 -66 -18
c-36 -10 -73 -25 -82 -33 -9 -8 -48 -20 -86 -27 -39 -7 -72 -16 -75 -20 -23
-33 -549 -47 -727 -20 -51 8 -93 17 -93 21 0 4 -20 13 -44 19 -25 6 -60 24
-78 41 -18 16 -37 30 -43 30 -16 0 -75 54 -75 68 0 7 -7 12 -15 12 -15 0 -196
175 -189 183 6 5 -57 67 -68 67 -4 0 -5 7 -2 15 4 8 2 15 -4 15 -15 0 -88 102
-84 117 2 7 -4 13 -12 13 -8 0 -18 9 -21 20 -3 11 -10 20 -15 20 -10 0 -40 57
-40 76 0 7 -10 16 -21 19 -17 6 -19 9 -8 16 11 7 11 9 -2 9 -9 0 -20 11 -23
24 -3 13 -9 31 -12 40 -10 25 11 18 26 -9 7 -13 25 -28 40 -33 22 -8 28 -19
39 -66 7 -31 17 -56 22 -56 5 0 12 -7 16 -17 9 -23 117 -133 131 -133 6 0 15
-6 19 -14 4 -7 25 -19 46 -25 20 -7 37 -16 37 -21 0 -5 16 -14 35 -21 19 -7
35 -16 35 -19 0 -4 18 -13 40 -20 22 -7 40 -17 40 -22 0 -4 7 -8 15 -8 7 0 18
-6 22 -14 4 -7 25 -19 46 -25 20 -7 37 -16 37 -19 0 -4 15 -13 33 -21 17 -8
34 -17 37 -20 18 -21 73 -51 94 -51 28 0 66 27 66 47 0 6 6 18 13 25 18 18 42
61 39 71 -1 4 2 7 7 7 5 0 13 9 16 20 3 11 12 20 19 20 7 0 18 11 25 24 11 19
10 29 -4 57 -10 19 -28 44 -41 55 -12 12 -20 24 -17 28 3 3 -8 18 -26 33 -17
15 -31 31 -31 35 0 7 -301 306 -379 376 -27 23 -52 42 -57 42 -5 0 -22 16 -38
35 -16 19 -34 35 -40 35 -6 0 -26 16 -43 35 -18 19 -37 35 -42 35 -5 0 -22 14
-38 30 -15 17 -31 30 -35 30 -7 0 -18 9 -117 100 -24 22 -48 40 -52 40 -4 0
-36 29 -71 65 -36 36 -68 65 -72 65 -6 0 -153 147 -183 183 -16 20 -33 118
-33 188 0 37 -4 59 -12 61 -19 7 -19 1039 0 1045 6 3 12 20 12 39 0 51 21 128
38 138 12 7 12 10 1 17 -12 7 -11 9 1 9 10 0 20 18 28 55 7 30 19 67 27 82 8
15 20 54 26 86 8 37 16 57 26 57 8 0 11 5 8 10 -3 6 -2 10 3 10 5 0 12 19 16
43 4 23 14 52 22 65 9 13 13 30 10 38 -3 8 -1 14 4 14 6 0 10 4 10 9 0 5 5 22
12 38 6 15 10 34 9 41 -1 6 6 12 15 12 11 0 15 6 12 18 -3 10 0 23 7 29 7 6
15 30 19 52 3 23 10 41 15 41 5 0 14 20 20 44 6 24 18 47 27 50 9 4 14 13 10
21 -3 8 -2 15 2 15 4 0 14 21 21 48 8 26 20 58 27 72 7 14 20 49 29 78 9 28
21 52 26 52 6 0 7 5 4 10 -3 6 -2 10 3 10 5 0 15 21 22 47 6 26 16 53 22 60 5
7 7 17 3 23 -3 5 -2 10 4 10 5 0 12 14 16 30 4 17 10 30 13 30 9 0 35 60 52
118 7 23 17 42 21 42 4 0 13 23 20 50 7 28 16 50 21 50 4 0 8 7 8 15 0 8 5 15
11 15 6 0 9 6 7 12 -3 7 1 18 7 25 7 6 15 30 19 52 3 23 11 41 17 41 5 0 7 5
4 10 -3 6 -2 10 3 10 12 0 53 80 46 91 -3 5 -1 9 4 9 5 0 17 23 26 51 10 29
24 58 32 66 8 8 14 21 14 29 0 8 9 24 20 36 10 12 17 25 14 30 -3 4 -1 8 4 8
4 0 16 25 26 55 9 30 21 55 27 55 5 0 9 11 9 25 0 14 5 25 11 25 5 0 7 4 4 10
-3 5 3 15 14 22 11 7 28 36 37 65 9 29 21 53 26 53 5 0 6 5 3 10 -3 6 -1 10 4
10 6 0 11 9 11 20 0 11 4 20 9 20 5 0 14 14 20 30 5 17 14 30 18 30 5 0 15 20
22 45 7 25 17 45 21 45 4 0 17 20 29 45 12 25 25 45 30 45 5 0 14 20 20 45 7
26 19 49 31 55 11 6 18 15 15 21 -4 5 -2 9 4 9 5 0 12 14 16 31 4 17 13 33 21
36 8 3 19 26 26 50 7 30 18 47 29 50 11 3 16 9 13 14 -3 5 0 9 5 9 6 0 11 9
11 20 0 11 7 23 16 27 8 3 13 12 10 19 -3 8 -1 14 5 14 5 0 15 11 21 25 6 14
18 25 26 25 8 0 12 6 8 15 -3 8 -1 15 5 15 6 0 8 7 5 15 -3 9 0 18 7 21 7 2
24 25 37 49 14 25 31 45 40 45 13 0 13 1 0 10 -13 8 -12 10 3 10 10 0 17 8 17
19 0 10 7 24 15 31 8 7 15 17 15 23 0 6 6 17 14 26 8 9 26 29 40 44 14 15 26
30 26 33 0 11 83 124 91 124 6 0 8 4 5 8 -3 5 8 23 24 40 16 18 26 32 22 32
-3 0 11 15 31 34 20 18 37 38 37 44 0 6 11 19 25 30 14 11 25 26 25 33 0 8 12
25 25 38 l25 23 27 -26 c38 -38 54 -74 60 -133 3 -29 9 -53 13 -53 4 0 10 -33
13 -72 4 -40 11 -74 17 -76 5 -2 10 -15 10 -28 0 -13 3 -24 8 -24 4 0 5 -22 4
-50 -3 -32 0 -50 7 -50 14 0 15 -347 2 -352 -13 -4 -27 -538 -15 -538 6 0 8
-16 6 -35 -3 -21 0 -35 7 -35 6 0 11 -10 11 -22 0 -42 29 -119 52 -138 13 -11
20 -19 15 -20 -11 0 88 -100 100 -100 6 0 16 -7 23 -15 7 -8 16 -12 21 -9 5 3
9 -1 9 -9 0 -13 96 -37 153 -37 24 0 42 22 38 48 -1 6 3 12 9 12 5 0 10 7 10
15 0 8 4 15 9 15 12 0 21 120 14 195 -4 41 -12 71 -24 84 -10 10 -16 21 -13
24 3 3 0 14 -7 25 -10 16 -9 22 9 40 11 11 28 23 39 26 16 5 53 71 53 96 0 6
5 10 10 10 6 0 10 29 10 66 0 36 -4 63 -8 60 -5 -3 -15 27 -22 65 -8 39 -19
77 -26 83 -6 7 -15 27 -19 44 -3 18 -11 32 -16 32 -5 0 -9 7 -9 15 0 8 -5 15
-11 15 -5 0 -7 5 -4 10 3 6 2 10 -3 10 -5 0 -15 20 -21 45 -6 25 -16 45 -22
45 -5 0 -7 5 -4 10 3 6 2 10 -3 10 -5 0 -13 10 -17 23 -4 12 -8 24 -10 27 -1
3 -6 14 -10 25 -5 11 -12 22 -17 26 -12 8 -26 94 -34 207 -4 56 -11 102 -15
102 -5 0 -9 25 -9 55 0 30 -3 55 -7 55 -5 0 -6 25 -5 55 2 30 0 55 -6 55 -5 0
-12 46 -15 102 -4 56 -10 104 -15 107 -5 3 -13 35 -17 71 -12 112 -38 210 -57
210 -3 0 -4 9 -1 20 3 11 0 20 -6 20 -6 0 -11 9 -11 20 0 11 -5 20 -11 20 -5
0 -8 4 -5 9 4 5 3 11 -1 13 -11 4 -43 67 -43 84 0 8 -7 14 -15 14 -9 0 -18 7
-21 15 -8 21 -98 18 -147 -4z m-3012 -751 c11 -4 56 -13 99 -20 44 -6 86 -15
95 -20 52 -25 110 -50 134 -55 15 -4 27 -11 27 -16 0 -5 6 -9 13 -9 6 0 25
-11 41 -25 16 -14 34 -25 40 -25 6 0 27 -18 46 -40 19 -22 41 -40 48 -40 6 0
12 -6 12 -13 0 -6 15 -25 34 -41 19 -15 40 -42 47 -60 7 -17 19 -35 26 -39 7
-4 13 -14 13 -21 0 -8 7 -16 15 -20 18 -7 22 -136 4 -136 -7 0 -10 -21 -7 -60
1 -33 0 -61 -4 -63 -4 -1 -10 -35 -14 -74 -4 -40 -10 -73 -14 -73 -4 0 -13
-29 -20 -65 -7 -36 -16 -65 -20 -65 -4 0 -10 -22 -14 -50 -4 -27 -13 -55 -20
-62 -7 -8 -19 -37 -25 -66 -7 -28 -17 -52 -21 -52 -4 0 -11 -16 -14 -35 -4
-19 -10 -35 -15 -35 -4 0 -14 -18 -21 -40 -7 -22 -17 -40 -23 -40 -5 0 -7 -7
-3 -15 3 -8 1 -15 -4 -15 -6 0 -10 -9 -10 -19 0 -11 -6 -26 -13 -33 -7 -7 -20
-28 -28 -45 -7 -18 -17 -33 -21 -33 -3 0 -9 -14 -13 -31 -4 -17 -13 -33 -20
-35 -6 -3 -18 -23 -25 -45 -7 -21 -17 -39 -22 -39 -5 0 -13 -11 -18 -25 -5
-14 -14 -25 -19 -25 -5 0 -12 -14 -16 -31 -4 -17 -13 -33 -21 -36 -8 -3 -14
-11 -14 -19 0 -7 -6 -17 -13 -21 -7 -4 -21 -25 -31 -45 -9 -21 -21 -38 -26
-38 -6 0 -10 -6 -10 -13 0 -7 -9 -20 -20 -30 -11 -9 -20 -23 -20 -32 0 -8 -9
-19 -20 -25 -11 -6 -20 -17 -20 -26 0 -8 -7 -17 -15 -20 -8 -4 -15 -11 -15
-18 0 -12 -33 -57 -67 -91 -13 -12 -23 -28 -23 -34 0 -6 -7 -14 -15 -17 -8 -3
-17 -14 -20 -25 -6 -18 -29 -46 -107 -129 -21 -22 -38 -43 -38 -47 0 -10 -175
-183 -184 -183 -4 0 -22 -15 -39 -34 -18 -18 -42 -36 -54 -40 -11 -4 -24 -13
-27 -21 -3 -8 -11 -15 -18 -15 -7 0 -19 -9 -26 -20 -7 -11 -19 -20 -27 -20 -8
0 -15 -4 -15 -8 0 -5 -24 -24 -52 -42 -29 -19 -59 -40 -66 -47 -7 -7 -24 -16
-38 -19 -13 -3 -24 -10 -24 -15 0 -5 -11 -14 -25 -19 -14 -5 -25 -14 -25 -20
0 -5 -5 -10 -12 -10 -6 0 -26 -11 -44 -25 -18 -14 -37 -25 -42 -25 -6 0 -12
-6 -15 -14 -3 -8 -19 -17 -36 -21 -17 -4 -31 -11 -31 -16 0 -6 -13 -15 -30
-20 -16 -6 -30 -14 -30 -19 0 -4 -13 -13 -30 -20 -16 -7 -30 -16 -30 -20 0 -5
-17 -14 -37 -21 -21 -6 -41 -18 -46 -25 -4 -7 -20 -15 -36 -19 -16 -3 -32 -13
-35 -21 -3 -8 -12 -14 -21 -14 -8 0 -15 -4 -15 -8 0 -4 -29 -23 -65 -41 -36
-19 -65 -37 -65 -41 0 -4 -18 -12 -40 -19 -22 -6 -40 -16 -40 -20 0 -5 -8 -11
-18 -13 -15 -4 -17 1 -13 35 2 25 -1 42 -10 47 -10 7 -12 65 -12 260 0 150 4
255 10 259 5 3 16 101 23 216 7 123 17 213 23 217 16 10 16 640 0 645 -7 3
-13 18 -13 34 0 49 -22 169 -31 169 -5 0 -9 9 -9 20 0 28 -23 100 -32 100 -5
0 -8 25 -8 55 0 30 5 55 10 55 6 0 10 29 10 68 0 79 21 275 30 282 4 3 13 41
20 85 7 44 16 82 20 85 3 3 12 31 19 63 7 31 16 57 21 57 4 0 11 16 14 35 4
19 12 35 18 35 6 0 8 9 5 19 -3 12 1 22 9 25 8 3 14 12 14 21 0 8 4 15 9 15 5
0 14 14 20 30 5 17 15 30 20 30 6 0 11 6 11 14 0 7 11 25 25 40 14 15 25 30
25 34 0 4 21 25 46 47 25 22 55 50 68 62 12 12 34 25 49 28 15 4 27 11 27 15
0 5 17 14 38 21 20 6 40 16 43 20 3 5 32 14 65 21 32 6 61 15 65 20 3 4 27 11
55 14 27 4 51 10 54 14 7 9 184 30 252 30 30 0 58 4 64 10 18 18 484 19 529 0z
m-3093 -3276 c-11 -22 -59 -119 -106 -217 -76 -156 -106 -200 -106 -153 0 24
-61 198 -87 250 -14 28 -39 70 -54 93 -16 23 -29 46 -29 51 0 11 74 25 213 42
48 6 97 15 110 19 17 7 28 3 51 -19 l28 -28 -20 -38z"/>
<path d="M9344 5832 c-22 -16 -63 -63 -92 -105 -51 -74 -152 -269 -152 -294 0
-15 -10 -16 -26 -5 -5 4 -28 36 -49 72 -66 110 -189 280 -203 280 -24 0 -52
-20 -52 -38 0 -9 21 -53 47 -97 25 -44 66 -113 89 -154 24 -41 42 -77 39 -79
-8 -8 -152 -32 -195 -32 -25 0 -65 -7 -90 -15 -25 -8 -71 -21 -102 -30 -70
-19 -88 -36 -88 -83 0 -30 9 -47 43 -84 55 -60 142 -201 174 -280 22 -55 25
-70 18 -132 -15 -143 -12 -222 9 -245 11 -12 26 -21 33 -21 45 0 126 97 204
245 15 27 58 110 97 184 l70 133 25 -37 c14 -21 43 -81 63 -134 52 -135 88
-179 157 -195 24 -6 29 -2 49 38 l21 45 -41 63 c-22 35 -82 150 -133 256 l-92
192 23 25 c25 27 69 33 115 15 18 -7 42 -5 83 5 92 24 350 55 442 52 108 -3
170 20 170 63 0 20 -10 34 -38 54 -54 37 -88 36 -442 -24 -122 -21 -267 -33
-282 -24 -4 3 -1 22 8 42 9 20 24 64 34 97 10 33 43 105 74 160 31 55 56 103
56 107 0 16 -28 7 -66 -20z m-337 -574 c13 -12 23 -28 23 -35 0 -8 -50 -116
-112 -241 l-112 -227 -16 65 c-34 130 -88 255 -151 347 -16 23 -29 43 -29 46
0 7 102 26 201 37 53 6 109 15 125 20 43 12 46 12 71 -12z"/>
</g>
</svg>
