<?xml version="1.0" standalone="no"?>
<!DOCTYPE svg PUBLIC "-//W3C//DTD SVG 20010904//EN"
 "http://www.w3.org/TR/2001/REC-SVG-20010904/DTD/svg10.dtd">
<svg version="1.0" xmlns="http://www.w3.org/2000/svg"
 width="256.000000pt" height="256.000000pt" viewBox="0 0 256.000000 256.000000"
 preserveAspectRatio="xMidYMid meet">
<metadata>
Created by potrace 1.15, written by Peter Selinger 2001-2017
</metadata>
<g transform="translate(0.000000,256.000000) scale(0.100000,-0.100000)"
fill="#000000" stroke="none">
<path d="M1939 2313 c-1 -53 -9 -78 -30 -95 -12 -10 -26 -18 -33 -18 -6 0 -69
20 -140 45 -180 63 -249 75 -421 75 -243 0 -393 -43 -573 -163 -231 -154 -424
-460 -465 -738 -6 -43 -15 -79 -19 -79 -4 0 -8 -43 -8 -95 0 -52 4 -95 8 -95
5 0 14 -37 21 -82 39 -257 206 -515 426 -661 133 -89 375 -167 514 -167 28 0
51 -4 51 -10 0 -6 43 -10 110 -10 67 0 110 4 110 10 0 6 20 10 45 10 103 0
268 45 433 117 l102 46 1 291 c0 341 9 488 33 534 23 45 67 69 142 77 l64 7 0
34 0 34 -370 0 -370 0 24 38 c37 57 49 108 44 182 -11 144 -117 257 -276 291
-26 5 -165 13 -309 16 -303 7 -289 -2 -179 108 110 109 248 169 419 181 319
22 545 -123 667 -428 34 -85 36 -88 67 -88 17 0 34 4 38 9 3 5 1 51 -4 103 -5
51 -15 158 -21 238 -7 80 -15 181 -18 225 l-7 80 -37 3 c-36 3 -38 1 -39 -25z
m-1142 -487 l28 -24 3 -514 c2 -510 2 -515 -18 -541 -12 -15 -26 -27 -31 -27
-17 0 -88 166 -115 268 -73 281 -49 593 62 815 14 26 29 47 34 47 5 0 22 -11
37 -24z m489 -41 c83 -41 124 -116 124 -225 -1 -149 -127 -250 -313 -250 l-67
0 0 245 0 244 38 6 c20 4 42 8 47 11 25 9 125 -9 171 -31z m224 -475 c0 -6 28
-10 63 -10 79 0 143 -30 172 -80 18 -32 20 -56 23 -257 2 -147 0 -223 -7 -223
-27 0 -136 125 -270 309 l-148 205 65 22 c36 13 70 28 76 34 13 13 26 13 26 0z
m-158 -372 l209 -288 105 0 104 0 0 -96 0 -95 -62 -29 c-110 -51 -179 -65
-328 -65 -103 0 -147 4 -188 18 -141 47 -231 105 -321 203 l-54 59 194 5 c186
5 194 6 194 25 0 17 -9 21 -60 27 -44 6 -66 14 -85 33 l-25 25 -3 236 -3 235
57 -3 57 -3 209 -287z"/>
</g>
</svg>
